Exact Audio Copy V0.99 prebeta 1 from 25. May 2007

EAC 抓取日志文件从25. 二月 2011, 22:13

朱崇懋 / 20世纪中华歌坛名人百集珍藏版

使用驱动器  ：PIONEER DVD-RW  DVR-115   Adapter: 0  ID: 0

读取模式     : 保护
使用精确流   : 是
废除音频缓冲 : 是
使用 C2 指针 : 否

组合读/写偏移校正              : 48
读取 Lead-In 和 Lead-Out       : 否
用静音填充抓取中丢失偏移的采样 : 是
去除首尾静音块                 : 否
已用接口                       : Win NT 及 2000 本地 Win32 接口

所用输出格式 : 内部 WAV 函数
样本格式     : 44.100 Hz;16 Bit;立体声
使用压缩偏移 : 48


被抓轨 CD 的 TOC

     音轨 |   开始   |   长度   | 起始扇区 | 结尾扇区 
    --------------------------------------------------
       1  |  0:00.00 |  4:35.50 |       0  |   20674  
       2  |  4:35.50 |  1:47.15 |   20675  |   28714  
       3  |  6:22.65 |  3:39.65 |   28715  |   45204  
       4  | 10:02.55 |  4:32.50 |   45205  |   65654  
       5  | 14:35.30 |  2:45.12 |   65655  |   78041  
       6  | 17:20.42 |  3:45.28 |   78042  |   94944  
       7  | 21:05.70 |  1:49.07 |   94945  |  103126  
       8  | 22:55.02 |  2:31.08 |  103127  |  114459  
       9  | 25:26.10 |  3:28.47 |  114460  |  130106  
      10  | 28:54.57 |  4:15.13 |  130107  |  149244  
      11  | 33:09.70 |  3:25.07 |  149245  |  164626  
      12  | 36:35.02 |  3:29.55 |  164627  |  180356  
      13  | 40:04.57 |  2:40.05 |  180357  |  192361  
      14  | 42:44.62 |  2:05.68 |  192362  |  201804  
      15  | 44:50.55 |  4:40.12 |  201805  |  222816  
      16  | 49:30.67 |  2:33.08 |  222817  |  234299  
      17  | 52:04.00 |  3:13.15 |  234300  |  248789  
      18  | 55:17.15 |  3:06.47 |  248790  |  262786  
      19  | 58:23.62 |  2:39.48 |  262787  |  274759  


范围状态及错误

已选择范围

     文件名 E:\20世纪中华歌坛名人百集珍藏版-朱崇懋[lwg188原创]\朱崇懋 - 20世纪中华歌坛名人百集珍藏版.wav

     峰值电平 96.3 %
     范围质量 99.9 %
     复制 CRC 23F29DD7
     复制成功

没有错误发生

状态报告结尾
